<?xml version="1.0" encoding="UTF-8"?>
<svg id="Lag_1" data-name="Lag 1" xmlns="http://www.w3.org/2000/svg" viewBox="0 0 211.55 122.35">
  <defs>
    <style>
      .cls-1 {
        fill: #d11c1d;
      }

      .cls-1, .cls-2 {
        stroke-width: 0px;
      }

      .cls-2 {
        fill: #ededed;
      }
    </style>
  </defs>
  <g>
    <path class="cls-1" d="M123.18,93.6c3.74-9.69,7.48-19.38,11.22-29.06l-46.29-13.53-6.58,22.52c1.6,1.81,4.64,4.73,8.96,6.13,2.4.77,5.02,1.02,6.19,1.1,1.7.11,2.69-.04,3.87,0,3.53.15,6.04.21,9.17,1.14,2.49.73,7.79,2.38,11.28,7.33,1.17,1.67,1.82,3.26,2.19,4.37Z"/>
    <circle class="cls-1" cx="119.63" cy="37.82" r="5.21"/>
    <rect class="cls-1" x="62.93" y="-3.92" width="55.72" height="103.9" transform="translate(138.82 -42.75) rotate(90)"/>
    <path class="cls-1" d="M124.84,28.15c-2.17-7.64-4.34-15.28-6.51-22.93-1.92.13-4.78.4-8.2,1.1-3.68.75-5.83,1.44-8.29,2.22-3.01.96-7.45,1.99-13.5,2.16l.63,18.37c11.96-.31,23.91-.62,35.87-.92Z"/>
    <path class="cls-1" d="M115.67,5.61c1.94-.35,4.32-.63,7.03-.62,2.59,0,4.87.28,6.74.62,4.57,1.26,12.03,4.09,17.98,10.82,1.55,1.76,3.97,4.86,7.89,15.57,6.99,19.1,7.88,29.47,9.1,37.62,1.08,7.23,2.27,17.08,2.86,28.91-6.57-1.92-13.14-3.83-19.71-5.75-7.56-22.46-15.75-45.3-24.61-68.46-2.41-6.29-4.83-12.53-7.28-18.71Z"/>
    <path class="cls-1" d="M62.95,5.61c-2.06-.36-4.56-.64-7.4-.62-2.65.01-5,.28-6.96.62-4.44,1.33-11.61,4.23-17.39,10.82-1.66,1.89-4.03,5.02-7.89,15.57-5.77,15.76-7.9,29.43-9.1,37.62-.94,6.43-2,15.16-2.56,25.63,6.47-.82,12.94-1.65,19.41-2.47,7.56-22.46,15.75-45.3,24.61-68.46,2.41-6.29,4.83-12.53,7.28-18.71Z"/>
    <path class="cls-1" d="M54.21,28.15c2.25-7.61,4.5-15.22,6.75-22.83,3.33.24,6.02.64,7.96,1.01,1.42.27,2.43.5,2.78.58,2.51.61,4.34,1.26,5.52,1.64,3.08,1.01,7.71,2.11,14.16,2.34-.43,6.06-.86,12.13-1.3,18.19-11.96-.31-23.91-.62-35.87-.92Z"/>
    <path class="cls-1" d="M126.43,100.38c-.18-.4-.66-1.52-1.42-3.03-.78-1.57-1.37-2.58-1.62-3.03,0,0-1.69-3.09-2.02-7.08-.47-5.6,11.61-17.07,24.76-15.46,11.67,1.43,20.13,12.65,21.07,23.66.96,11.35-5.78,25.83-16.78,26.87-9.68.92-18.64-12.88-19.94-14.85-2.77-4.19-4.04-7.08-4.04-7.08Z"/>
    <path class="cls-1" d="M52.5,98.48c.18-.4.66-1.52,1.42-3.03.78-1.57,1.37-2.58,1.62-3.03,0,0,1.69-3.09,2.02-7.08.47-5.6-11.61-17.07-24.76-15.46-11.67,1.43-20.13,12.65-21.07,23.66-.96,11.35,5.78,25.83,16.78,26.87,9.68.92,18.64-12.88,19.94-14.85,2.77-4.19,4.04-7.08,4.04-7.08Z"/>
    <path class="cls-1" d="M54.88,93.6c-3.74-9.69-7.48-19.38-11.22-29.06l46.29-13.53,6.58,22.52c-1.63,1.93-4.35,4.51-8.27,5.93-2.81,1.02-5.64,1.22-6.88,1.3-1.67.11-2.45-.05-3.87,0-3.53.15-6.04.21-9.17,1.14-2.49.73-7.79,2.38-11.28,7.33-1.17,1.67-1.82,3.26-2.19,4.37Z"/>
    <rect class="cls-1" x="77.24" y="44.91" width="23.46" height="48.22" transform="translate(158 -19.95) rotate(90)"/>
  </g>
  <circle class="cls-2" cx="121.76" cy="36.34" r="5.5"/>
  <circle class="cls-2" cx="49.84" cy="32.14" r="10.26"/>
  <circle class="cls-2" cx="114.37" cy="62.33" r="10.26"/>
  <circle class="cls-2" cx="133.51" cy="48.57" r="5.5"/>
  <circle class="cls-2" cx="144.57" cy="36.6" r="5.5"/>
  <circle class="cls-2" cx="133.51" cy="25.31" r="5.5"/>
  <circle class="cls-2" cx="43.77" cy="60.65" r="4.93"/>
  <circle class="cls-2" cx="34.89" cy="49.55" r="3.39"/>
  <rect class="cls-2" x="62.78" y="50.54" width="7.18" height="20.21"/>
  <rect class="cls-2" x="62.78" y="50.54" width="7.18" height="20.21" transform="translate(5.72 127.01) rotate(-90)"/>
  <polygon class="cls-2" points="53.27 60.65 56.26 64.24 56.26 57.06 53.27 60.65"/>
  <polygon class="cls-2" points="79.46 60.65 76.47 57.06 76.47 64.24 79.46 60.65"/>
  <polygon class="cls-2" points="66.37 47.58 62.78 50.57 69.96 50.57 66.37 47.58"/>
  <polygon class="cls-2" points="66.37 73.71 69.96 70.72 62.78 70.72 66.37 73.71"/>
</svg>