<?xml version="1.0" encoding="UTF-8"?>
<svg id="Lag_1" data-name="Lag 1" xmlns="http://www.w3.org/2000/svg" viewBox="0 0 349.82 378.61">
  <defs>
    <style>
      .cls-1 {
        fill: #fbea24;
        stroke-width: 0px;
      }
    </style>
  </defs>
  <rect class="cls-1" x="291.57" y="58.25" width="58.25" height="58.25" transform="translate(641.39 174.74) rotate(-180)"/>
  <rect class="cls-1" x="291.57" y="29.12" width="29.12" height="29.12" transform="translate(612.27 87.37) rotate(-180)"/>
  <rect class="cls-1" x="116.66" y="0" width="145.62" height="29.12" transform="translate(378.94 29.12) rotate(-180)"/>
  <rect class="cls-1" x="116.83" y="145.62" width="87.2" height="29.12" transform="translate(320.87 320.36) rotate(-180)"/>
  <rect class="cls-1" x="114.34" y="203.87" width="89.7" height="29.12" transform="translate(318.37 436.85) rotate(-180)"/>
  <rect class="cls-1" x="291.57" y="262.11" width="58.25" height="58.25" transform="translate(641.39 582.47) rotate(-180)"/>
  <rect class="cls-1" x="291.57" y="320.36" width="29.12" height="29.12" transform="translate(612.27 669.84) rotate(-180)"/>
  <rect class="cls-1" x="114.34" y="349.48" width="145.62" height="29.12" transform="translate(374.29 728.09) rotate(-180)"/>
  <rect class="cls-1" x="-58.25" y="174.74" width="145.62" height="29.12" transform="translate(-174.74 203.87) rotate(-90)"/>
  <rect class="cls-1" x="58.58" y="29.12" width="232.99" height="116.49"/>
  <rect class="cls-1" x="58.58" y="232.99" width="232.99" height="116.49"/>
  <rect class="cls-1" x="-58.25" y="145.62" width="262.11" height="87.37" transform="translate(262.11 116.49) rotate(90)"/>
</svg>